<svg id="Layer_1" enable-background="new 0 0 512 512" height="512" viewBox="0 0 512 512" width="512" xmlns="http://www.w3.org/2000/svg"><g><g><g><g id="XMLID_1781_"><g id="XMLID_1782_"><g id="XMLID_1783_"><g id="XMLID_1800_"><g id="XMLID_1801_"><g id="XMLID_1802_"><g id="XMLID_1803_"><g id="XMLID_1804_"><g id="XMLID_1805_"><g id="XMLID_1806_"><g id="XMLID_1807_"><g id="XMLID_1808_"><g id="XMLID_1836_"><g id="XMLID_1925_"><g id="XMLID_1937_"><circle cx="256" cy="256" fill="#ffdd54" r="256"/></g></g></g></g></g></g></g></g></g></g></g></g></g></g></g></g></g><path d="m146.617 487.504c33.17 15.701 70.247 24.496 109.383 24.496 141.385 0 256-114.615 256-256 0-32.37-6.024-63.329-16.985-91.838l-93.036-93.036-101.361 34.632 36.901 36.996-45.613 6.617-80.524-78.245-101.361 34.632 26.183 26.015 4.223 17.879-92.469 239.194z" fill="#ecbe00"/><g><path d="m322.157 97.845h58.283v51.525h-58.283z" fill="#494949"/><path d="m300.618 71.126h101.362v34.632h-101.362z" fill="#2d2d2d"/><path d="m131.56 97.845h58.283v51.525h-58.283z" fill="#5e5e5e"/><path d="m47.958 142.472h416.083v246.374h-416.083z" fill="#ff4d05"/><path d="m256 142.47h208.04v246.38h-208.04z" fill="#c30047"/><g><circle cx="351.299" cy="265.659" fill="#f1f4f6" r="77.961"/><circle cx="160.701" cy="265.659" fill="#fff" r="77.961"/></g><path d="m110.021 71.126h101.362v34.632h-101.362z" fill="#494949"/><g><path d="m204.089 280.659h-58.388v-59.068h30v29.068h28.388z" fill="#5e5e5e"/></g><g><path d="m366.299 280.659h-60.813v-30h30.813v-29.068h30z" fill="#2d2d2d"/></g></g></g></svg>